<?xml version="1.0" encoding="utf-8" standalone="no"?>
<!DOCTYPE svg PUBLIC "-//W3C//DTD SVG 1.1//EN"
  "http://www.w3.org/Graphics/SVG/1.1/DTD/svg11.dtd">
<svg xmlns:xlink="http://www.w3.org/1999/xlink" width="382.79952pt" height="289.19952pt" viewBox="0 0 382.79952 289.19952" xmlns="http://www.w3.org/2000/svg" version="1.1">
 <metadata>
  <rdf:RDF xmlns:dc="http://purl.org/dc/elements/1.1/" xmlns:cc="http://creativecommons.org/ns#" xmlns:rdf="http://www.w3.org/1999/02/22-rdf-syntax-ns#">
   <cc:Work>
    <dc:type rdf:resource="http://purl.org/dc/dcmitype/StillImage"/>
    <dc:date>2025-04-23T11:26:21.450557</dc:date>
    <dc:format>image/svg+xml</dc:format>
    <dc:creator>
     <cc:Agent>
      <dc:title>Matplotlib v3.9.3, https://matplotlib.org/</dc:title>
     </cc:Agent>
    </dc:creator>
   </cc:Work>
  </rdf:RDF>
 </metadata>
 <defs>
  <style type="text/css">*{stroke-linejoin: round; stroke-linecap: butt}</style>
 </defs>
 <g id="figure_1">
  <g id="patch_1">
   <path d="M 0 289.19952 
L 382.79952 289.19952 
L 382.79952 0 
L 0 0 
z
" style="fill: #ffffff"/>
  </g>
  <g id="axes_1">
   <g id="patch_2">
    <path d="M 46.038606 260.388167 
L 379.19952 260.388167 
L 379.19952 3.6 
L 46.038606 3.6 
z
" style="fill: #ffffff"/>
   </g>
   <g id="matplotlib.axis_1">
    <g id="xtick_1">
     <g id="line2d_1">
      <defs>
       <path id="m913f563893" d="M 0 0 
L 0 -3 
" style="stroke: #000000; stroke-width: 0.5"/>
      </defs>
      <g>
       <use xlink:href="#m913f563893" x="105.846826" y="260.388167" style="stroke: #000000; stroke-width: 0.5"/>
      </g>
     </g>
     <g id="line2d_2">
      <defs>
       <path id="m758edfa192" d="M 0 0 
L 0 3 
" style="stroke: #000000; stroke-width: 0.5"/>
      </defs>
      <g>
       <use xlink:href="#m758edfa192" x="105.846826" y="3.6" style="stroke: #000000; stroke-width: 0.5"/>
      </g>
     </g>
     <g id="text_1">
      <!-- $\mathdefault{10^{-2}}$ -->
      <g transform="translate(95.766539 270.806665) scale(0.1 -0.1)">
       <defs>
        <path id="CMR17-31" d="M 1702 4058 
C 1702 4192 1696 4192 1606 4192 
C 1357 3916 979 3827 621 3827 
C 602 3827 570 3827 563 3808 
C 557 3795 557 3782 557 3648 
C 755 3648 1088 3686 1344 3839 
L 1344 461 
C 1344 236 1331 160 781 160 
L 589 160 
L 589 0 
C 896 0 1216 0 1523 0 
C 1830 0 2150 0 2458 0 
L 2458 160 
L 2266 160 
C 1715 160 1702 230 1702 458 
L 1702 4058 
z
" transform="scale(0.015625)"/>
        <path id="CMR17-30" d="M 2688 2025 
C 2688 2416 2682 3080 2413 3591 
C 2176 4039 1798 4198 1466 4198 
C 1158 4198 768 4058 525 3597 
C 269 3118 243 2524 243 2025 
C 243 1661 250 1106 448 619 
C 723 -39 1216 -128 1466 -128 
C 1760 -128 2208 -7 2470 600 
C 2662 1042 2688 1559 2688 2025 
z
M 1466 -26 
C 1056 -26 813 325 723 812 
C 653 1188 653 1738 653 2096 
C 653 2588 653 2997 736 3387 
C 858 3929 1216 4096 1466 4096 
C 1728 4096 2067 3923 2189 3400 
C 2272 3036 2278 2607 2278 2096 
C 2278 1680 2278 1169 2202 792 
C 2067 95 1690 -26 1466 -26 
z
" transform="scale(0.015625)"/>
        <path id="CMSY10-0" d="M 4218 1472 
C 4326 1472 4442 1472 4442 1600 
C 4442 1728 4326 1728 4218 1728 
L 755 1728 
C 646 1728 531 1728 531 1600 
C 531 1472 646 1472 755 1472 
L 4218 1472 
z
" transform="scale(0.015625)"/>
        <path id="CMR17-32" d="M 2669 989 
L 2554 989 
C 2490 536 2438 459 2413 420 
C 2381 369 1920 369 1830 369 
L 602 369 
C 832 619 1280 1072 1824 1597 
C 2214 1967 2669 2402 2669 3035 
C 2669 3790 2067 4224 1395 4224 
C 691 4224 262 3604 262 3030 
C 262 2780 448 2748 525 2748 
C 589 2748 781 2787 781 3010 
C 781 3207 614 3264 525 3264 
C 486 3264 448 3258 422 3245 
C 544 3790 915 4058 1306 4058 
C 1862 4058 2227 3617 2227 3035 
C 2227 2479 1901 2000 1536 1584 
L 262 146 
L 262 0 
L 2515 0 
L 2669 989 
z
" transform="scale(0.015625)"/>
       </defs>
       <use xlink:href="#CMR17-31" transform="scale(0.996264)"/>
       <use xlink:href="#CMR17-30" transform="translate(45.690477 0) scale(0.996264)"/>
       <use xlink:href="#CMSY10-0" transform="translate(91.380954 36.153639) scale(0.697382)"/>
       <use xlink:href="#CMR17-32" transform="translate(145.621947 36.153639) scale(0.697382)"/>
      </g>
     </g>
    </g>
    <g id="xtick_2">
     <g id="line2d_3">
      <defs>
       <path id="m19f6ba2b3e" d="M 0 0 
L 0 -1.5 
" style="stroke: #000000; stroke-width: 0.5"/>
      </defs>
      <g>
       <use xlink:href="#m19f6ba2b3e" x="65.473329" y="260.388167" style="stroke: #000000; stroke-width: 0.5"/>
      </g>
     </g>
     <g id="line2d_4">
      <defs>
       <path id="m8ea5e40483" d="M 0 0 
L 0 1.5 
" style="stroke: #000000; stroke-width: 0.5"/>
      </defs>
      <g>
       <use xlink:href="#m8ea5e40483" x="65.473329" y="3.6" style="stroke: #000000; stroke-width: 0.5"/>
      </g>
     </g>
    </g>
    <g id="xtick_3">
     <g id="line2d_5">
      <g>
       <use xlink:href="#m19f6ba2b3e" x="86.783884" y="260.388167" style="stroke: #000000; stroke-width: 0.5"/>
      </g>
     </g>
     <g id="line2d_6">
      <g>
       <use xlink:href="#m8ea5e40483" x="86.783884" y="3.6" style="stroke: #000000; stroke-width: 0.5"/>
      </g>
     </g>
    </g>
    <g id="xtick_4">
     <g id="line2d_7">
      <g>
       <use xlink:href="#m19f6ba2b3e" x="231.25836" y="260.388167" style="stroke: #000000; stroke-width: 0.5"/>
      </g>
     </g>
     <g id="line2d_8">
      <g>
       <use xlink:href="#m8ea5e40483" x="231.25836" y="3.6" style="stroke: #000000; stroke-width: 0.5"/>
      </g>
     </g>
     <g id="text_2">
      <!-- $\mathdefault{2\times10^{-2}}$ -->
      <g transform="translate(212.599168 270.790822) scale(0.1 -0.1)">
       <defs>
        <path id="CMSY10-2" d="M 2490 1785 
L 1210 3059 
C 1133 3136 1120 3148 1069 3148 
C 1005 3148 941 3091 941 3020 
C 941 2976 954 2963 1024 2892 
L 2304 1606 
L 1024 320 
C 954 249 941 236 941 192 
C 941 121 1005 64 1069 64 
C 1120 64 1133 76 1210 153 
L 2483 1427 
L 3808 102 
C 3821 96 3866 64 3904 64 
C 3981 64 4032 121 4032 192 
C 4032 204 4032 230 4013 262 
C 4006 275 2989 1280 2669 1606 
L 3840 2777 
C 3872 2816 3968 2899 4000 2937 
C 4006 2950 4032 2976 4032 3020 
C 4032 3091 3981 3148 3904 3148 
C 3853 3148 3827 3123 3757 3052 
L 2490 1785 
z
" transform="scale(0.015625)"/>
       </defs>
       <use xlink:href="#CMR17-32" transform="scale(0.996264)"/>
       <use xlink:href="#CMSY10-2" transform="translate(67.829684 0) scale(0.996264)"/>
       <use xlink:href="#CMR17-31" transform="translate(167.456359 0) scale(0.996264)"/>
       <use xlink:href="#CMR17-30" transform="translate(213.146836 0) scale(0.996264)"/>
       <use xlink:href="#CMSY10-0" transform="translate(258.837313 36.153639) scale(0.697382)"/>
       <use xlink:href="#CMR17-32" transform="translate(313.078306 36.153639) scale(0.697382)"/>
      </g>
     </g>
    </g>
    <g id="xtick_5">
     <g id="line2d_9">
      <g>
       <use xlink:href="#m19f6ba2b3e" x="304.619405" y="260.388167" style="stroke: #000000; stroke-width: 0.5"/>
      </g>
     </g>
     <g id="line2d_10">
      <g>
       <use xlink:href="#m8ea5e40483" x="304.619405" y="3.6" style="stroke: #000000; stroke-width: 0.5"/>
      </g>
     </g>
     <g id="text_3">
      <!-- $\mathdefault{3\times10^{-2}}$ -->
      <g transform="translate(285.960212 270.790822) scale(0.1 -0.1)">
       <defs>
        <path id="CMR17-33" d="M 1414 2157 
C 1984 2157 2234 1662 2234 1090 
C 2234 320 1824 25 1453 25 
C 1114 25 563 194 390 693 
C 422 680 454 680 486 680 
C 640 680 755 782 755 948 
C 755 1133 614 1216 486 1216 
C 378 1216 211 1165 211 926 
C 211 335 787 -128 1466 -128 
C 2176 -128 2720 430 2720 1085 
C 2720 1707 2208 2157 1600 2227 
C 2086 2328 2554 2756 2554 3329 
C 2554 3820 2048 4179 1472 4179 
C 890 4179 378 3829 378 3329 
C 378 3110 544 3072 627 3072 
C 762 3072 877 3155 877 3321 
C 877 3486 762 3569 627 3569 
C 602 3569 570 3569 544 3557 
C 730 3959 1235 4032 1459 4032 
C 1683 4032 2106 3925 2106 3320 
C 2106 3143 2080 2828 1862 2550 
C 1670 2304 1453 2304 1242 2284 
C 1210 2284 1062 2269 1037 2269 
C 992 2263 966 2257 966 2208 
C 966 2163 973 2157 1101 2157 
L 1414 2157 
z
" transform="scale(0.015625)"/>
       </defs>
       <use xlink:href="#CMR17-33" transform="scale(0.996264)"/>
       <use xlink:href="#CMSY10-2" transform="translate(67.829684 0) scale(0.996264)"/>
       <use xlink:href="#CMR17-31" transform="translate(167.456359 0) scale(0.996264)"/>
       <use xlink:href="#CMR17-30" transform="translate(213.146836 0) scale(0.996264)"/>
       <use xlink:href="#CMSY10-0" transform="translate(258.837313 36.153639) scale(0.697382)"/>
       <use xlink:href="#CMR17-32" transform="translate(313.078306 36.153639) scale(0.697382)"/>
      </g>
     </g>
    </g>
    <g id="xtick_6">
     <g id="line2d_11">
      <g>
       <use xlink:href="#m19f6ba2b3e" x="356.669894" y="260.388167" style="stroke: #000000; stroke-width: 0.5"/>
      </g>
     </g>
     <g id="line2d_12">
      <g>
       <use xlink:href="#m8ea5e40483" x="356.669894" y="3.6" style="stroke: #000000; stroke-width: 0.5"/>
      </g>
     </g>
     <g id="text_4">
      <!-- $\mathdefault{4\times10^{-2}}$ -->
      <g transform="translate(338.010702 270.790822) scale(0.1 -0.1)">
       <defs>
        <path id="CMR17-34" d="M 2150 4122 
C 2150 4256 2144 4256 2029 4256 
L 128 1254 
L 128 1088 
L 1779 1088 
L 1779 457 
C 1779 224 1766 160 1318 160 
L 1197 160 
L 1197 0 
C 1402 0 1747 0 1965 0 
C 2182 0 2528 0 2733 0 
L 2733 160 
L 2611 160 
C 2163 160 2150 224 2150 457 
L 2150 1088 
L 2803 1088 
L 2803 1254 
L 2150 1254 
L 2150 4122 
z
M 1798 3703 
L 1798 1254 
L 256 1254 
L 1798 3703 
z
" transform="scale(0.015625)"/>
       </defs>
       <use xlink:href="#CMR17-34" transform="scale(0.996264)"/>
       <use xlink:href="#CMSY10-2" transform="translate(67.829684 0) scale(0.996264)"/>
       <use xlink:href="#CMR17-31" transform="translate(167.456359 0) scale(0.996264)"/>
       <use xlink:href="#CMR17-30" transform="translate(213.146836 0) scale(0.996264)"/>
       <use xlink:href="#CMSY10-0" transform="translate(258.837313 36.153639) scale(0.697382)"/>
       <use xlink:href="#CMR17-32" transform="translate(313.078306 36.153639) scale(0.697382)"/>
      </g>
     </g>
    </g>
    <g id="text_5">
     <!-- $h$ -->
     <g transform="translate(209.749035 283.662342) scale(0.1 -0.1)">
      <defs>
       <path id="CMMI12-68" d="M 1798 4257 
C 1805 4283 1818 4321 1818 4352 
C 1818 4416 1754 4416 1741 4416 
C 1734 4416 1421 4388 1389 4380 
C 1280 4373 1184 4358 1069 4358 
C 909 4345 864 4339 864 4224 
C 864 4160 915 4160 1005 4160 
C 1318 4160 1325 4103 1325 4040 
C 1325 4002 1312 3951 1306 3932 
L 378 248 
C 352 152 352 140 352 101 
C 352 -38 461 -64 525 -64 
C 634 -64 717 19 749 89 
L 1037 1245 
C 1069 1386 1107 1520 1139 1660 
C 1210 1929 1210 1935 1331 2120 
C 1453 2305 1741 2689 2234 2689 
C 2490 2689 2579 2497 2579 2242 
C 2579 1884 2330 1188 2189 805 
C 2131 651 2099 568 2099 453 
C 2099 166 2298 -64 2605 -64 
C 3200 -64 3424 875 3424 913 
C 3424 945 3398 971 3360 971 
C 3302 971 3296 952 3264 843 
C 3117 332 2880 64 2624 64 
C 2560 64 2458 64 2458 269 
C 2458 436 2534 640 2560 710 
C 2675 1018 2963 1773 2963 2145 
C 2963 2528 2739 2816 2253 2816 
C 1888 2816 1568 2644 1306 2312 
L 1798 4257 
z
" transform="scale(0.015625)"/>
      </defs>
      <use xlink:href="#CMMI12-68" transform="scale(0.996264)"/>
     </g>
    </g>
   </g>
   <g id="matplotlib.axis_2">
    <g id="ytick_1">
     <g id="line2d_13">
      <defs>
       <path id="m92d6fe450e" d="M 0 0 
L 3 0 
" style="stroke: #000000; stroke-width: 0.5"/>
      </defs>
      <g>
       <use xlink:href="#m92d6fe450e" x="46.038606" y="241.43038" style="stroke: #000000; stroke-width: 0.5"/>
      </g>
     </g>
     <g id="line2d_14">
      <defs>
       <path id="m55ac39c0b5" d="M 0 0 
L -3 0 
" style="stroke: #000000; stroke-width: 0.5"/>
      </defs>
      <g>
       <use xlink:href="#m55ac39c0b5" x="379.19952" y="241.43038" style="stroke: #000000; stroke-width: 0.5"/>
      </g>
     </g>
     <g id="text_6">
      <!-- $\mathdefault{10^{-5}}$ -->
      <g transform="translate(22.378033 244.88963) scale(0.1 -0.1)">
       <defs>
        <path id="CMR17-35" d="M 730 3692 
C 794 3666 1056 3584 1325 3584 
C 1920 3584 2246 3911 2432 4100 
C 2432 4157 2432 4192 2394 4192 
C 2387 4192 2374 4192 2323 4163 
C 2099 4058 1837 3973 1517 3973 
C 1325 3973 1037 3999 723 4139 
C 653 4171 640 4171 634 4171 
C 602 4171 595 4164 595 4037 
L 595 2203 
C 595 2089 595 2057 659 2057 
C 691 2057 704 2070 736 2114 
C 941 2401 1222 2522 1542 2522 
C 1766 2522 2246 2382 2246 1289 
C 2246 1085 2246 715 2054 421 
C 1894 159 1645 25 1370 25 
C 947 25 518 320 403 814 
C 429 807 480 795 506 795 
C 589 795 749 840 749 1038 
C 749 1210 627 1280 506 1280 
C 358 1280 262 1190 262 1011 
C 262 454 704 -128 1382 -128 
C 2042 -128 2669 440 2669 1264 
C 2669 2030 2170 2624 1549 2624 
C 1222 2624 947 2503 730 2274 
L 730 3692 
z
" transform="scale(0.015625)"/>
       </defs>
       <use xlink:href="#CMR17-31" transform="scale(0.996264)"/>
       <use xlink:href="#CMR17-30" transform="translate(45.690477 0) scale(0.996264)"/>
       <use xlink:href="#CMSY10-0" transform="translate(91.380954 36.153639) scale(0.697382)"/>
       <use xlink:href="#CMR17-35" transform="translate(145.621947 36.153639) scale(0.697382)"/>
      </g>
     </g>
    </g>
    <g id="ytick_2">
     <g id="line2d_15">
      <g>
       <use xlink:href="#m92d6fe450e" x="46.038606" y="196.993068" style="stroke: #000000; stroke-width: 0.5"/>
      </g>
     </g>
     <g id="line2d_16">
      <g>
       <use xlink:href="#m55ac39c0b5" x="379.19952" y="196.993068" style="stroke: #000000; stroke-width: 0.5"/>
      </g>
     </g>
     <g id="text_7">
      <!-- $\mathdefault{10^{-4}}$ -->
      <g transform="translate(22.378033 200.452317) scale(0.1 -0.1)">
       <use xlink:href="#CMR17-31" transform="scale(0.996264)"/>
       <use xlink:href="#CMR17-30" transform="translate(45.690477 0) scale(0.996264)"/>
       <use xlink:href="#CMSY10-0" transform="translate(91.380954 36.153639) scale(0.697382)"/>
       <use xlink:href="#CMR17-34" transform="translate(145.621947 36.153639) scale(0.697382)"/>
      </g>
     </g>
    </g>
    <g id="ytick_3">
     <g id="line2d_17">
      <g>
       <use xlink:href="#m92d6fe450e" x="46.038606" y="152.555755" style="stroke: #000000; stroke-width: 0.5"/>
      </g>
     </g>
     <g id="line2d_18">
      <g>
       <use xlink:href="#m55ac39c0b5" x="379.19952" y="152.555755" style="stroke: #000000; stroke-width: 0.5"/>
      </g>
     </g>
     <g id="text_8">
      <!-- $\mathdefault{10^{-3}}$ -->
      <g transform="translate(22.378033 156.015004) scale(0.1 -0.1)">
       <use xlink:href="#CMR17-31" transform="scale(0.996264)"/>
       <use xlink:href="#CMR17-30" transform="translate(45.690477 0) scale(0.996264)"/>
       <use xlink:href="#CMSY10-0" transform="translate(91.380954 36.153639) scale(0.697382)"/>
       <use xlink:href="#CMR17-33" transform="translate(145.621947 36.153639) scale(0.697382)"/>
      </g>
     </g>
    </g>
    <g id="ytick_4">
     <g id="line2d_19">
      <g>
       <use xlink:href="#m92d6fe450e" x="46.038606" y="108.118442" style="stroke: #000000; stroke-width: 0.5"/>
      </g>
     </g>
     <g id="line2d_20">
      <g>
       <use xlink:href="#m55ac39c0b5" x="379.19952" y="108.118442" style="stroke: #000000; stroke-width: 0.5"/>
      </g>
     </g>
     <g id="text_9">
      <!-- $\mathdefault{10^{-2}}$ -->
      <g transform="translate(22.378033 111.577691) scale(0.1 -0.1)">
       <use xlink:href="#CMR17-31" transform="scale(0.996264)"/>
       <use xlink:href="#CMR17-30" transform="translate(45.690477 0) scale(0.996264)"/>
       <use xlink:href="#CMSY10-0" transform="translate(91.380954 36.153639) scale(0.697382)"/>
       <use xlink:href="#CMR17-32" transform="translate(145.621947 36.153639) scale(0.697382)"/>
      </g>
     </g>
    </g>
    <g id="ytick_5">
     <g id="line2d_21">
      <g>
       <use xlink:href="#m92d6fe450e" x="46.038606" y="63.681129" style="stroke: #000000; stroke-width: 0.5"/>
      </g>
     </g>
     <g id="line2d_22">
      <g>
       <use xlink:href="#m55ac39c0b5" x="379.19952" y="63.681129" style="stroke: #000000; stroke-width: 0.5"/>
      </g>
     </g>
     <g id="text_10">
      <!-- $\mathdefault{10^{-1}}$ -->
      <g transform="translate(22.378033 67.140379) scale(0.1 -0.1)">
       <use xlink:href="#CMR17-31" transform="scale(0.996264)"/>
       <use xlink:href="#CMR17-30" transform="translate(45.690477 0) scale(0.996264)"/>
       <use xlink:href="#CMSY10-0" transform="translate(91.380954 36.153639) scale(0.697382)"/>
       <use xlink:href="#CMR17-31" transform="translate(145.621947 36.153639) scale(0.697382)"/>
      </g>
     </g>
    </g>
    <g id="ytick_6">
     <g id="line2d_23">
      <g>
       <use xlink:href="#m92d6fe450e" x="46.038606" y="19.243817" style="stroke: #000000; stroke-width: 0.5"/>
      </g>
     </g>
     <g id="line2d_24">
      <g>
       <use xlink:href="#m55ac39c0b5" x="379.19952" y="19.243817" style="stroke: #000000; stroke-width: 0.5"/>
      </g>
     </g>
     <g id="text_11">
      <!-- $\mathdefault{10^{0}}$ -->
      <g transform="translate(28.604698 22.703066) scale(0.1 -0.1)">
       <use xlink:href="#CMR17-31" transform="scale(0.996264)"/>
       <use xlink:href="#CMR17-30" transform="translate(45.690477 0) scale(0.996264)"/>
       <use xlink:href="#CMR17-30" transform="translate(91.380954 36.153639) scale(0.697382)"/>
      </g>
     </g>
    </g>
    <g id="ytick_7">
     <g id="line2d_25">
      <defs>
       <path id="m4c6eb906a3" d="M 0 0 
L 1.5 0 
" style="stroke: #000000; stroke-width: 0.5"/>
      </defs>
      <g>
       <use xlink:href="#m4c6eb906a3" x="46.038606" y="259.113765" style="stroke: #000000; stroke-width: 0.5"/>
      </g>
     </g>
     <g id="line2d_26">
      <defs>
       <path id="m6a488967a6" d="M 0 0 
L -1.5 0 
" style="stroke: #000000; stroke-width: 0.5"/>
      </defs>
      <g>
       <use xlink:href="#m6a488967a6" x="379.19952" y="259.113765" style="stroke: #000000; stroke-width: 0.5"/>
      </g>
     </g>
    </g>
    <g id="ytick_8">
     <g id="line2d_27">
      <g>
       <use xlink:href="#m4c6eb906a3" x="46.038606" y="254.807344" style="stroke: #000000; stroke-width: 0.5"/>
      </g>
     </g>
     <g id="line2d_28">
      <g>
       <use xlink:href="#m6a488967a6" x="379.19952" y="254.807344" style="stroke: #000000; stroke-width: 0.5"/>
      </g>
     </g>
    </g>
    <g id="ytick_9">
     <g id="line2d_29">
      <g>
       <use xlink:href="#m4c6eb906a3" x="46.038606" y="251.288743" style="stroke: #000000; stroke-width: 0.5"/>
      </g>
     </g>
     <g id="line2d_30">
      <g>
       <use xlink:href="#m6a488967a6" x="379.19952" y="251.288743" style="stroke: #000000; stroke-width: 0.5"/>
      </g>
     </g>
    </g>
    <g id="ytick_10">
     <g id="line2d_31">
      <g>
       <use xlink:href="#m4c6eb906a3" x="46.038606" y="248.313807" style="stroke: #000000; stroke-width: 0.5"/>
      </g>
     </g>
     <g id="line2d_32">
      <g>
       <use xlink:href="#m6a488967a6" x="379.19952" y="248.313807" style="stroke: #000000; stroke-width: 0.5"/>
      </g>
     </g>
    </g>
    <g id="ytick_11">
     <g id="line2d_33">
      <g>
       <use xlink:href="#m4c6eb906a3" x="46.038606" y="245.736801" style="stroke: #000000; stroke-width: 0.5"/>
      </g>
     </g>
     <g id="line2d_34">
      <g>
       <use xlink:href="#m6a488967a6" x="379.19952" y="245.736801" style="stroke: #000000; stroke-width: 0.5"/>
      </g>
     </g>
    </g>
    <g id="ytick_12">
     <g id="line2d_35">
      <g>
       <use xlink:href="#m4c6eb906a3" x="46.038606" y="243.46372" style="stroke: #000000; stroke-width: 0.5"/>
      </g>
     </g>
     <g id="line2d_36">
      <g>
       <use xlink:href="#m6a488967a6" x="379.19952" y="243.46372" style="stroke: #000000; stroke-width: 0.5"/>
      </g>
     </g>
    </g>
    <g id="ytick_13">
     <g id="line2d_37">
      <g>
       <use xlink:href="#m4c6eb906a3" x="46.038606" y="228.053416" style="stroke: #000000; stroke-width: 0.5"/>
      </g>
     </g>
     <g id="line2d_38">
      <g>
       <use xlink:href="#m6a488967a6" x="379.19952" y="228.053416" style="stroke: #000000; stroke-width: 0.5"/>
      </g>
     </g>
    </g>
    <g id="ytick_14">
     <g id="line2d_39">
      <g>
       <use xlink:href="#m4c6eb906a3" x="46.038606" y="220.228394" style="stroke: #000000; stroke-width: 0.5"/>
      </g>
     </g>
     <g id="line2d_40">
      <g>
       <use xlink:href="#m6a488967a6" x="379.19952" y="220.228394" style="stroke: #000000; stroke-width: 0.5"/>
      </g>
     </g>
    </g>
    <g id="ytick_15">
     <g id="line2d_41">
      <g>
       <use xlink:href="#m4c6eb906a3" x="46.038606" y="214.676452" style="stroke: #000000; stroke-width: 0.5"/>
      </g>
     </g>
     <g id="line2d_42">
      <g>
       <use xlink:href="#m6a488967a6" x="379.19952" y="214.676452" style="stroke: #000000; stroke-width: 0.5"/>
      </g>
     </g>
    </g>
    <g id="ytick_16">
     <g id="line2d_43">
      <g>
       <use xlink:href="#m4c6eb906a3" x="46.038606" y="210.370032" style="stroke: #000000; stroke-width: 0.5"/>
      </g>
     </g>
     <g id="line2d_44">
      <g>
       <use xlink:href="#m6a488967a6" x="379.19952" y="210.370032" style="stroke: #000000; stroke-width: 0.5"/>
      </g>
     </g>
    </g>
    <g id="ytick_17">
     <g id="line2d_45">
      <g>
       <use xlink:href="#m4c6eb906a3" x="46.038606" y="206.85143" style="stroke: #000000; stroke-width: 0.5"/>
      </g>
     </g>
     <g id="line2d_46">
      <g>
       <use xlink:href="#m6a488967a6" x="379.19952" y="206.85143" style="stroke: #000000; stroke-width: 0.5"/>
      </g>
     </g>
    </g>
    <g id="ytick_18">
     <g id="line2d_47">
      <g>
       <use xlink:href="#m4c6eb906a3" x="46.038606" y="203.876495" style="stroke: #000000; stroke-width: 0.5"/>
      </g>
     </g>
     <g id="line2d_48">
      <g>
       <use xlink:href="#m6a488967a6" x="379.19952" y="203.876495" style="stroke: #000000; stroke-width: 0.5"/>
      </g>
     </g>
    </g>
    <g id="ytick_19">
     <g id="line2d_49">
      <g>
       <use xlink:href="#m4c6eb906a3" x="46.038606" y="201.299488" style="stroke: #000000; stroke-width: 0.5"/>
      </g>
     </g>
     <g id="line2d_50">
      <g>
       <use xlink:href="#m6a488967a6" x="379.19952" y="201.299488" style="stroke: #000000; stroke-width: 0.5"/>
      </g>
     </g>
    </g>
    <g id="ytick_20">
     <g id="line2d_51">
      <g>
       <use xlink:href="#m4c6eb906a3" x="46.038606" y="199.026408" style="stroke: #000000; stroke-width: 0.5"/>
      </g>
     </g>
     <g id="line2d_52">
      <g>
       <use xlink:href="#m6a488967a6" x="379.19952" y="199.026408" style="stroke: #000000; stroke-width: 0.5"/>
      </g>
     </g>
    </g>
    <g id="ytick_21">
     <g id="line2d_53">
      <g>
       <use xlink:href="#m4c6eb906a3" x="46.038606" y="183.616104" style="stroke: #000000; stroke-width: 0.5"/>
      </g>
     </g>
     <g id="line2d_54">
      <g>
       <use xlink:href="#m6a488967a6" x="379.19952" y="183.616104" style="stroke: #000000; stroke-width: 0.5"/>
      </g>
     </g>
    </g>
    <g id="ytick_22">
     <g id="line2d_55">
      <g>
       <use xlink:href="#m4c6eb906a3" x="46.038606" y="175.791081" style="stroke: #000000; stroke-width: 0.5"/>
      </g>
     </g>
     <g id="line2d_56">
      <g>
       <use xlink:href="#m6a488967a6" x="379.19952" y="175.791081" style="stroke: #000000; stroke-width: 0.5"/>
      </g>
     </g>
    </g>
    <g id="ytick_23">
     <g id="line2d_57">
      <g>
       <use xlink:href="#m4c6eb906a3" x="46.038606" y="170.23914" style="stroke: #000000; stroke-width: 0.5"/>
      </g>
     </g>
     <g id="line2d_58">
      <g>
       <use xlink:href="#m6a488967a6" x="379.19952" y="170.23914" style="stroke: #000000; stroke-width: 0.5"/>
      </g>
     </g>
    </g>
    <g id="ytick_24">
     <g id="line2d_59">
      <g>
       <use xlink:href="#m4c6eb906a3" x="46.038606" y="165.932719" style="stroke: #000000; stroke-width: 0.5"/>
      </g>
     </g>
     <g id="line2d_60">
      <g>
       <use xlink:href="#m6a488967a6" x="379.19952" y="165.932719" style="stroke: #000000; stroke-width: 0.5"/>
      </g>
     </g>
    </g>
    <g id="ytick_25">
     <g id="line2d_61">
      <g>
       <use xlink:href="#m4c6eb906a3" x="46.038606" y="162.414117" style="stroke: #000000; stroke-width: 0.5"/>
      </g>
     </g>
     <g id="line2d_62">
      <g>
       <use xlink:href="#m6a488967a6" x="379.19952" y="162.414117" style="stroke: #000000; stroke-width: 0.5"/>
      </g>
     </g>
    </g>
    <g id="ytick_26">
     <g id="line2d_63">
      <g>
       <use xlink:href="#m4c6eb906a3" x="46.038606" y="159.439182" style="stroke: #000000; stroke-width: 0.5"/>
      </g>
     </g>
     <g id="line2d_64">
      <g>
       <use xlink:href="#m6a488967a6" x="379.19952" y="159.439182" style="stroke: #000000; stroke-width: 0.5"/>
      </g>
     </g>
    </g>
    <g id="ytick_27">
     <g id="line2d_65">
      <g>
       <use xlink:href="#m4c6eb906a3" x="46.038606" y="156.862176" style="stroke: #000000; stroke-width: 0.5"/>
      </g>
     </g>
     <g id="line2d_66">
      <g>
       <use xlink:href="#m6a488967a6" x="379.19952" y="156.862176" style="stroke: #000000; stroke-width: 0.5"/>
      </g>
     </g>
    </g>
    <g id="ytick_28">
     <g id="line2d_67">
      <g>
       <use xlink:href="#m4c6eb906a3" x="46.038606" y="154.589095" style="stroke: #000000; stroke-width: 0.5"/>
      </g>
     </g>
     <g id="line2d_68">
      <g>
       <use xlink:href="#m6a488967a6" x="379.19952" y="154.589095" style="stroke: #000000; stroke-width: 0.5"/>
      </g>
     </g>
    </g>
    <g id="ytick_29">
     <g id="line2d_69">
      <g>
       <use xlink:href="#m4c6eb906a3" x="46.038606" y="139.178791" style="stroke: #000000; stroke-width: 0.5"/>
      </g>
     </g>
     <g id="line2d_70">
      <g>
       <use xlink:href="#m6a488967a6" x="379.19952" y="139.178791" style="stroke: #000000; stroke-width: 0.5"/>
      </g>
     </g>
    </g>
    <g id="ytick_30">
     <g id="line2d_71">
      <g>
       <use xlink:href="#m4c6eb906a3" x="46.038606" y="131.353769" style="stroke: #000000; stroke-width: 0.5"/>
      </g>
     </g>
     <g id="line2d_72">
      <g>
       <use xlink:href="#m6a488967a6" x="379.19952" y="131.353769" style="stroke: #000000; stroke-width: 0.5"/>
      </g>
     </g>
    </g>
    <g id="ytick_31">
     <g id="line2d_73">
      <g>
       <use xlink:href="#m4c6eb906a3" x="46.038606" y="125.801827" style="stroke: #000000; stroke-width: 0.5"/>
      </g>
     </g>
     <g id="line2d_74">
      <g>
       <use xlink:href="#m6a488967a6" x="379.19952" y="125.801827" style="stroke: #000000; stroke-width: 0.5"/>
      </g>
     </g>
    </g>
    <g id="ytick_32">
     <g id="line2d_75">
      <g>
       <use xlink:href="#m4c6eb906a3" x="46.038606" y="121.495406" style="stroke: #000000; stroke-width: 0.5"/>
      </g>
     </g>
     <g id="line2d_76">
      <g>
       <use xlink:href="#m6a488967a6" x="379.19952" y="121.495406" style="stroke: #000000; stroke-width: 0.5"/>
      </g>
     </g>
    </g>
    <g id="ytick_33">
     <g id="line2d_77">
      <g>
       <use xlink:href="#m4c6eb906a3" x="46.038606" y="117.976804" style="stroke: #000000; stroke-width: 0.5"/>
      </g>
     </g>
     <g id="line2d_78">
      <g>
       <use xlink:href="#m6a488967a6" x="379.19952" y="117.976804" style="stroke: #000000; stroke-width: 0.5"/>
      </g>
     </g>
    </g>
    <g id="ytick_34">
     <g id="line2d_79">
      <g>
       <use xlink:href="#m4c6eb906a3" x="46.038606" y="115.001869" style="stroke: #000000; stroke-width: 0.5"/>
      </g>
     </g>
     <g id="line2d_80">
      <g>
       <use xlink:href="#m6a488967a6" x="379.19952" y="115.001869" style="stroke: #000000; stroke-width: 0.5"/>
      </g>
     </g>
    </g>
    <g id="ytick_35">
     <g id="line2d_81">
      <g>
       <use xlink:href="#m4c6eb906a3" x="46.038606" y="112.424863" style="stroke: #000000; stroke-width: 0.5"/>
      </g>
     </g>
     <g id="line2d_82">
      <g>
       <use xlink:href="#m6a488967a6" x="379.19952" y="112.424863" style="stroke: #000000; stroke-width: 0.5"/>
      </g>
     </g>
    </g>
    <g id="ytick_36">
     <g id="line2d_83">
      <g>
       <use xlink:href="#m4c6eb906a3" x="46.038606" y="110.151782" style="stroke: #000000; stroke-width: 0.5"/>
      </g>
     </g>
     <g id="line2d_84">
      <g>
       <use xlink:href="#m6a488967a6" x="379.19952" y="110.151782" style="stroke: #000000; stroke-width: 0.5"/>
      </g>
     </g>
    </g>
    <g id="ytick_37">
     <g id="line2d_85">
      <g>
       <use xlink:href="#m4c6eb906a3" x="46.038606" y="94.741478" style="stroke: #000000; stroke-width: 0.5"/>
      </g>
     </g>
     <g id="line2d_86">
      <g>
       <use xlink:href="#m6a488967a6" x="379.19952" y="94.741478" style="stroke: #000000; stroke-width: 0.5"/>
      </g>
     </g>
    </g>
    <g id="ytick_38">
     <g id="line2d_87">
      <g>
       <use xlink:href="#m4c6eb906a3" x="46.038606" y="86.916456" style="stroke: #000000; stroke-width: 0.5"/>
      </g>
     </g>
     <g id="line2d_88">
      <g>
       <use xlink:href="#m6a488967a6" x="379.19952" y="86.916456" style="stroke: #000000; stroke-width: 0.5"/>
      </g>
     </g>
    </g>
    <g id="ytick_39">
     <g id="line2d_89">
      <g>
       <use xlink:href="#m4c6eb906a3" x="46.038606" y="81.364514" style="stroke: #000000; stroke-width: 0.5"/>
      </g>
     </g>
     <g id="line2d_90">
      <g>
       <use xlink:href="#m6a488967a6" x="379.19952" y="81.364514" style="stroke: #000000; stroke-width: 0.5"/>
      </g>
     </g>
    </g>
    <g id="ytick_40">
     <g id="line2d_91">
      <g>
       <use xlink:href="#m4c6eb906a3" x="46.038606" y="77.058094" style="stroke: #000000; stroke-width: 0.5"/>
      </g>
     </g>
     <g id="line2d_92">
      <g>
       <use xlink:href="#m6a488967a6" x="379.19952" y="77.058094" style="stroke: #000000; stroke-width: 0.5"/>
      </g>
     </g>
    </g>
    <g id="ytick_41">
     <g id="line2d_93">
      <g>
       <use xlink:href="#m4c6eb906a3" x="46.038606" y="73.539492" style="stroke: #000000; stroke-width: 0.5"/>
      </g>
     </g>
     <g id="line2d_94">
      <g>
       <use xlink:href="#m6a488967a6" x="379.19952" y="73.539492" style="stroke: #000000; stroke-width: 0.5"/>
      </g>
     </g>
    </g>
    <g id="ytick_42">
     <g id="line2d_95">
      <g>
       <use xlink:href="#m4c6eb906a3" x="46.038606" y="70.564556" style="stroke: #000000; stroke-width: 0.5"/>
      </g>
     </g>
     <g id="line2d_96">
      <g>
       <use xlink:href="#m6a488967a6" x="379.19952" y="70.564556" style="stroke: #000000; stroke-width: 0.5"/>
      </g>
     </g>
    </g>
    <g id="ytick_43">
     <g id="line2d_97">
      <g>
       <use xlink:href="#m4c6eb906a3" x="46.038606" y="67.98755" style="stroke: #000000; stroke-width: 0.5"/>
      </g>
     </g>
     <g id="line2d_98">
      <g>
       <use xlink:href="#m6a488967a6" x="379.19952" y="67.98755" style="stroke: #000000; stroke-width: 0.5"/>
      </g>
     </g>
    </g>
    <g id="ytick_44">
     <g id="line2d_99">
      <g>
       <use xlink:href="#m4c6eb906a3" x="46.038606" y="65.714469" style="stroke: #000000; stroke-width: 0.5"/>
      </g>
     </g>
     <g id="line2d_100">
      <g>
       <use xlink:href="#m6a488967a6" x="379.19952" y="65.714469" style="stroke: #000000; stroke-width: 0.5"/>
      </g>
     </g>
    </g>
    <g id="ytick_45">
     <g id="line2d_101">
      <g>
       <use xlink:href="#m4c6eb906a3" x="46.038606" y="50.304165" style="stroke: #000000; stroke-width: 0.5"/>
      </g>
     </g>
     <g id="line2d_102">
      <g>
       <use xlink:href="#m6a488967a6" x="379.19952" y="50.304165" style="stroke: #000000; stroke-width: 0.5"/>
      </g>
     </g>
    </g>
    <g id="ytick_46">
     <g id="line2d_103">
      <g>
       <use xlink:href="#m4c6eb906a3" x="46.038606" y="42.479143" style="stroke: #000000; stroke-width: 0.5"/>
      </g>
     </g>
     <g id="line2d_104">
      <g>
       <use xlink:href="#m6a488967a6" x="379.19952" y="42.479143" style="stroke: #000000; stroke-width: 0.5"/>
      </g>
     </g>
    </g>
    <g id="ytick_47">
     <g id="line2d_105">
      <g>
       <use xlink:href="#m4c6eb906a3" x="46.038606" y="36.927201" style="stroke: #000000; stroke-width: 0.5"/>
      </g>
     </g>
     <g id="line2d_106">
      <g>
       <use xlink:href="#m6a488967a6" x="379.19952" y="36.927201" style="stroke: #000000; stroke-width: 0.5"/>
      </g>
     </g>
    </g>
    <g id="ytick_48">
     <g id="line2d_107">
      <g>
       <use xlink:href="#m4c6eb906a3" x="46.038606" y="32.620781" style="stroke: #000000; stroke-width: 0.5"/>
      </g>
     </g>
     <g id="line2d_108">
      <g>
       <use xlink:href="#m6a488967a6" x="379.19952" y="32.620781" style="stroke: #000000; stroke-width: 0.5"/>
      </g>
     </g>
    </g>
    <g id="ytick_49">
     <g id="line2d_109">
      <g>
       <use xlink:href="#m4c6eb906a3" x="46.038606" y="29.102179" style="stroke: #000000; stroke-width: 0.5"/>
      </g>
     </g>
     <g id="line2d_110">
      <g>
       <use xlink:href="#m6a488967a6" x="379.19952" y="29.102179" style="stroke: #000000; stroke-width: 0.5"/>
      </g>
     </g>
    </g>
    <g id="ytick_50">
     <g id="line2d_111">
      <g>
       <use xlink:href="#m4c6eb906a3" x="46.038606" y="26.127244" style="stroke: #000000; stroke-width: 0.5"/>
      </g>
     </g>
     <g id="line2d_112">
      <g>
       <use xlink:href="#m6a488967a6" x="379.19952" y="26.127244" style="stroke: #000000; stroke-width: 0.5"/>
      </g>
     </g>
    </g>
    <g id="ytick_51">
     <g id="line2d_113">
      <g>
       <use xlink:href="#m4c6eb906a3" x="46.038606" y="23.550237" style="stroke: #000000; stroke-width: 0.5"/>
      </g>
     </g>
     <g id="line2d_114">
      <g>
       <use xlink:href="#m6a488967a6" x="379.19952" y="23.550237" style="stroke: #000000; stroke-width: 0.5"/>
      </g>
     </g>
    </g>
    <g id="ytick_52">
     <g id="line2d_115">
      <g>
       <use xlink:href="#m4c6eb906a3" x="46.038606" y="21.277157" style="stroke: #000000; stroke-width: 0.5"/>
      </g>
     </g>
     <g id="line2d_116">
      <g>
       <use xlink:href="#m6a488967a6" x="379.19952" y="21.277157" style="stroke: #000000; stroke-width: 0.5"/>
      </g>
     </g>
    </g>
    <g id="ytick_53">
     <g id="line2d_117">
      <g>
       <use xlink:href="#m4c6eb906a3" x="46.038606" y="5.866853" style="stroke: #000000; stroke-width: 0.5"/>
      </g>
     </g>
     <g id="line2d_118">
      <g>
       <use xlink:href="#m6a488967a6" x="379.19952" y="5.866853" style="stroke: #000000; stroke-width: 0.5"/>
      </g>
     </g>
    </g>
    <g id="text_12">
     <!-- $\left[\int_h  \text{tr}((\mathbf{S} - \mathbf{S}_h)^T(\mathbf{S} - \mathbf{S}_h)) d\Omega\right]^{1/2}$ -->
     <g transform="translate(14.835713 202.829639) rotate(-90) scale(0.1 -0.1)">
      <defs>
       <path id="CMEX10-2" d="M 1295 -7421 
L 2523 -7421 
L 2523 -7165 
L 1551 -7165 
L 1551 0 
L 2523 0 
L 2523 256 
L 1295 256 
L 1295 -7421 
z
" transform="scale(0.015625)"/>
       <path id="CMEX10-52" d="M 1741 -5632 
C 1658 -6682 1427 -6970 1062 -6970 
C 979 -6970 787 -6950 653 -6836 
C 838 -6811 890 -6663 890 -6574 
C 890 -6387 749 -6304 627 -6304 
C 499 -6304 358 -6387 358 -6579 
C 358 -6886 678 -7110 1062 -7110 
C 1670 -7110 1978 -6554 2118 -5978 
C 2202 -5645 2432 -3782 2483 -3071 
L 2605 -1477 
C 2694 -300 2912 -140 3200 -140 
C 3264 -140 3462 -153 3603 -274 
C 3418 -300 3366 -447 3366 -537 
C 3366 -722 3507 -805 3629 -805 
C 3757 -805 3898 -722 3898 -530 
C 3898 -223 3578 1 3194 1 
C 2586 1 2336 -620 2227 -1106 
C 2150 -1458 1920 -3263 1862 -4038 
L 1741 -5632 
z
" transform="scale(0.015625)"/>
       <path id="CMR17-74" d="M 966 2560 
L 1862 2560 
L 1862 2725 
L 966 2725 
L 966 3904 
L 851 3904 
C 838 3245 614 2668 70 2668 
L 70 2560 
L 627 2560 
L 627 771 
C 627 650 627 -64 1370 -64 
C 1747 -64 1965 306 1965 777 
L 1965 1140 
L 1850 1140 
L 1850 783 
C 1850 344 1677 51 1408 51 
C 1222 51 966 178 966 758 
L 966 2560 
z
" transform="scale(0.015625)"/>
       <path id="CMR17-72" d="M 960 1497 
C 960 2112 1222 2688 1702 2688 
C 1747 2688 1792 2682 1837 2662 
C 1837 2662 1696 2617 1696 2452 
C 1696 2298 1818 2234 1914 2234 
C 1990 2234 2131 2279 2131 2458 
C 2131 2663 1926 2790 1709 2790 
C 1222 2790 1011 2317 947 2093 
L 941 2093 
L 941 2790 
L 198 2720 
L 198 2554 
C 576 2554 634 2515 634 2208 
L 634 428 
C 634 184 608 153 198 153 
L 198 -13 
C 352 0 646 0 813 0 
C 998 0 1325 0 1498 -13 
L 1498 153 
C 1037 153 960 153 960 440 
L 960 1497 
z
" transform="scale(0.015625)"/>
       <path id="CMR17-28" d="M 1958 -1561 
C 1958 -1555 1958 -1542 1939 -1523 
C 1645 -1224 858 -407 858 1581 
C 858 3569 1632 4379 1946 4697 
C 1946 4704 1958 4717 1958 4736 
C 1958 4755 1939 4768 1914 4768 
C 1843 4768 1299 4296 986 3594 
C 666 2887 576 2199 576 1588 
C 576 1128 621 351 1005 -471 
C 1312 -1135 1837 -1600 1914 -1600 
C 1946 -1600 1958 -1587 1958 -1561 
z
" transform="scale(0.015625)"/>
       <path id="CMBX12-53" d="M 1626 2782 
C 992 2920 973 3376 973 3465 
C 973 3787 1184 4162 1805 4162 
C 2426 4162 2982 3863 3117 3030 
C 3136 2896 3136 2896 3258 2896 
C 3392 2896 3392 2915 3392 3060 
L 3392 4252 
C 3392 4372 3392 4417 3296 4417 
C 3251 4417 3232 4411 3174 4347 
L 2899 4035 
C 2739 4169 2419 4416 1798 4416 
C 883 4416 397 3846 397 3156 
C 397 2732 627 2434 717 2345 
C 1050 2016 1229 1978 1894 1832 
C 2534 1693 2611 1680 2752 1548 
C 2835 1465 3021 1288 3021 965 
C 3021 692 2886 192 2170 192 
C 1606 192 717 382 666 1307 
C 659 1421 659 1440 531 1440 
C 397 1440 397 1421 397 1275 
L 397 83 
C 397 -38 397 -82 493 -82 
C 538 -82 544 -76 608 -19 
C 678 51 736 134 896 293 
C 1267 1 1792 -81 2176 -81 
C 3174 -81 3597 590 3597 1262 
C 3597 1856 3200 2426 2502 2584 
L 1626 2782 
z
" transform="scale(0.015625)"/>
       <path id="CMR17-29" d="M 1683 1581 
C 1683 2040 1638 2817 1254 3639 
C 947 4303 422 4768 346 4768 
C 326 4768 301 4761 301 4729 
C 301 4717 307 4710 314 4697 
C 621 4378 1402 3568 1402 1584 
C 1402 -407 627 -1217 314 -1537 
C 307 -1549 301 -1556 301 -1568 
C 301 -1600 326 -1600 346 -1600 
C 416 -1600 960 -1128 1274 -426 
C 1594 281 1683 969 1683 1581 
z
" transform="scale(0.015625)"/>
       <path id="CMMI12-54" d="M 2669 3910 
C 2707 4064 2720 4121 2816 4147 
C 2867 4160 3078 4160 3213 4160 
C 3853 4160 4154 4134 4154 3634 
C 4154 3537 4128 3295 4090 3057 
L 4083 2980 
C 4083 2954 4109 2916 4147 2916 
C 4211 2916 4211 2948 4230 3050 
L 4416 4184 
C 4429 4243 4429 4256 4429 4275 
C 4429 4345 4390 4345 4262 4345 
L 762 4345 
C 614 4345 608 4339 570 4224 
L 179 3070 
C 173 3056 154 2986 154 2980 
C 154 2948 179 2916 218 2916 
C 269 2916 282 2941 307 3024 
C 576 3801 710 4160 1562 4160 
L 1990 4160 
C 2144 4160 2208 4160 2208 4089 
C 2208 4069 2208 4057 2176 3941 
L 1318 499 
C 1254 249 1242 185 563 185 
C 403 185 358 185 358 64 
C 358 0 429 0 461 0 
C 621 0 787 0 947 0 
L 1946 0 
C 2106 0 2278 0 2438 0 
C 2509 0 2573 0 2573 121 
C 2573 185 2528 185 2362 185 
C 1786 185 1786 243 1786 339 
C 1786 346 1786 391 1811 494 
L 2669 3910 
z
" transform="scale(0.015625)"/>
       <path id="CMMI12-64" d="M 3219 4257 
C 3226 4282 3238 4320 3238 4352 
C 3238 4416 3174 4416 3162 4416 
C 3155 4416 2842 4388 2810 4380 
C 2701 4373 2605 4358 2490 4358 
C 2330 4345 2285 4339 2285 4224 
C 2285 4160 2336 4160 2426 4160 
C 2739 4160 2746 4103 2746 4040 
C 2746 4002 2733 3952 2726 3933 
L 2336 2395 
C 2266 2561 2093 2816 1760 2816 
C 1037 2816 256 1884 256 939 
C 256 307 627 -64 1062 -64 
C 1414 -64 1715 211 1894 422 
C 1958 45 2259 -64 2451 -64 
C 2643 -64 2797 51 2912 281 
C 3014 498 3104 888 3104 913 
C 3104 945 3078 971 3040 971 
C 2982 971 2976 939 2950 843 
C 2854 466 2733 64 2470 64 
C 2285 64 2272 229 2272 357 
C 2272 382 2272 515 2317 694 
L 3219 4257 
z
M 1926 760 
C 1894 651 1894 639 1805 517 
C 1664 338 1382 64 1082 64 
C 819 64 672 300 672 677 
C 672 1028 870 1743 992 2012 
C 1210 2459 1510 2689 1760 2689 
C 2182 2689 2266 2165 2266 2114 
C 2266 2108 2246 2024 2240 2012 
L 1926 760 
z
" transform="scale(0.015625)"/>
       <path id="CMR17-a" d="M 4038 935 
L 3923 935 
C 3866 641 3846 563 3814 461 
C 3782 365 3763 314 3392 314 
L 2874 314 
C 2944 686 3098 961 3366 1391 
C 3699 1935 3974 2377 3974 2910 
C 3974 3775 3155 4480 2138 4480 
C 1094 4480 294 3768 294 2910 
C 294 2377 576 1922 890 1416 
C 1171 961 1325 686 1395 314 
L 877 314 
C 512 314 493 365 461 454 
C 422 557 410 641 346 935 
L 230 935 
L 416 0 
L 1382 0 
C 1517 0 1523 6 1523 102 
C 1523 558 1286 1154 1178 1429 
C 973 1929 781 2416 781 2916 
C 781 3871 1466 4377 2131 4377 
C 2829 4377 3488 3851 3488 2916 
C 3488 2422 3315 1981 3078 1397 
C 2976 1135 2746 551 2746 102 
C 2746 0 2752 0 2886 0 
L 3853 0 
L 4038 935 
z
" transform="scale(0.015625)"/>
       <path id="CMEX10-3" d="M 1369 -7421 
L 1369 256 
L 140 256 
L 140 0 
L 1113 0 
L 1113 -7165 
L 140 -7165 
L 140 -7421 
L 1369 -7421 
z
" transform="scale(0.015625)"/>
       <path id="CMMI12-3d" d="M 2746 4562 
C 2746 4569 2784 4666 2784 4678 
C 2784 4755 2720 4800 2669 4800 
C 2637 4800 2579 4800 2528 4659 
L 384 -1363 
C 384 -1370 346 -1465 346 -1478 
C 346 -1555 410 -1600 461 -1600 
C 499 -1600 557 -1593 602 -1459 
L 2746 4562 
z
" transform="scale(0.015625)"/>
      </defs>
      <use xlink:href="#CMEX10-2" transform="translate(0 80.698084) scale(0.996264)"/>
      <use xlink:href="#CMEX10-52" transform="translate(41.511218 80.25515) scale(0.996264)"/>
      <use xlink:href="#CMMI12-68" transform="translate(88.557117 -33.928858) scale(0.697382)"/>
      <use xlink:href="#CMR17-74" transform="translate(144.967708 0) scale(0.996264)"/>
      <use xlink:href="#CMR17-72" transform="translate(180.248476 0) scale(0.996264)"/>
      <use xlink:href="#CMR17-28" transform="translate(215.529244 0) scale(0.996264)"/>
      <use xlink:href="#CMR17-28" transform="translate(250.810012 0) scale(0.996264)"/>
      <use xlink:href="#CMBX12-53" transform="translate(286.09078 0) scale(0.996264)"/>
      <use xlink:href="#CMSY10-0" transform="translate(370.496487 0) scale(0.996264)"/>
      <use xlink:href="#CMBX12-53" transform="translate(470.123162 0) scale(0.996264)"/>
      <use xlink:href="#CMMI12-68" transform="translate(532.389662 -14.943915) scale(0.697382)"/>
      <use xlink:href="#CMR17-29" transform="translate(572.195849 0) scale(0.996264)"/>
      <use xlink:href="#CMMI12-54" transform="translate(607.476617 36.153639) scale(0.697382)"/>
      <use xlink:href="#CMR17-28" transform="translate(657.481071 0) scale(0.996264)"/>
      <use xlink:href="#CMBX12-53" transform="translate(692.761839 0) scale(0.996264)"/>
      <use xlink:href="#CMSY10-0" transform="translate(777.167546 0) scale(0.996264)"/>
      <use xlink:href="#CMBX12-53" transform="translate(876.794221 0) scale(0.996264)"/>
      <use xlink:href="#CMMI12-68" transform="translate(939.060721 -14.943915) scale(0.697382)"/>
      <use xlink:href="#CMR17-29" transform="translate(978.866908 0) scale(0.996264)"/>
      <use xlink:href="#CMR17-29" transform="translate(1014.147676 0) scale(0.996264)"/>
      <use xlink:href="#CMMI12-64" transform="translate(1049.428443 0) scale(0.996264)"/>
      <use xlink:href="#CMR17-a" transform="translate(1100.11754 0) scale(0.996264)"/>
      <use xlink:href="#CMEX10-3" transform="translate(1166.627421 80.698084) scale(0.996264)"/>
      <use xlink:href="#CMR17-31" transform="translate(1208.138639 57.756542) scale(0.697382)"/>
      <use xlink:href="#CMMI12-3d" transform="translate(1240.121821 57.756542) scale(0.697382)"/>
      <use xlink:href="#CMR17-32" transform="translate(1274.264112 57.756542) scale(0.697382)"/>
     </g>
    </g>
   </g>
   <g id="line2d_119">
    <path d="M 364.055842 14.858442 
L 336.165267 17.727585 
L 312.005353 20.284794 
L 290.694797 22.415683 
L 262.804223 25.396296 
L 238.644308 27.851745 
L 214.013832 30.494406 
L 186.593818 33.259739 
L 162.787629 35.77652 
L 137.392688 38.419125 
L 111.357828 41.163854 
L 86.964906 43.765898 
L 61.182284 46.43338 
" clip-path="url(#p84345f47dc)" style="fill: none; stroke: #e24a33; stroke-linecap: square"/>
    <defs>
     <path id="m6014b6e3fa" d="M 0 3 
C 0.795609 3 1.55874 2.683901 2.12132 2.12132 
C 2.683901 1.55874 3 0.795609 3 0 
C 3 -0.795609 2.683901 -1.55874 2.12132 -2.12132 
C 1.55874 -2.683901 0.795609 -3 0 -3 
C -0.795609 -3 -1.55874 -2.683901 -2.12132 -2.12132 
C -2.683901 -1.55874 -3 -0.795609 -3 0 
C -3 0.795609 -2.683901 1.55874 -2.12132 2.12132 
C -1.55874 2.683901 -0.795609 3 0 3 
z
" style="stroke: #000000"/>
    </defs>
    <g clip-path="url(#p84345f47dc)">
     <use xlink:href="#m6014b6e3fa" x="364.055842" y="14.858442" style="fill: #e24a33; stroke: #000000"/>
     <use xlink:href="#m6014b6e3fa" x="336.165267" y="17.727585" style="fill: #e24a33; stroke: #000000"/>
     <use xlink:href="#m6014b6e3fa" x="312.005353" y="20.284794" style="fill: #e24a33; stroke: #000000"/>
     <use xlink:href="#m6014b6e3fa" x="290.694797" y="22.415683" style="fill: #e24a33; stroke: #000000"/>
     <use xlink:href="#m6014b6e3fa" x="262.804223" y="25.396296" style="fill: #e24a33; stroke: #000000"/>
     <use xlink:href="#m6014b6e3fa" x="238.644308" y="27.851745" style="fill: #e24a33; stroke: #000000"/>
     <use xlink:href="#m6014b6e3fa" x="214.013832" y="30.494406" style="fill: #e24a33; stroke: #000000"/>
     <use xlink:href="#m6014b6e3fa" x="186.593818" y="33.259739" style="fill: #e24a33; stroke: #000000"/>
     <use xlink:href="#m6014b6e3fa" x="162.787629" y="35.77652" style="fill: #e24a33; stroke: #000000"/>
     <use xlink:href="#m6014b6e3fa" x="137.392688" y="38.419125" style="fill: #e24a33; stroke: #000000"/>
     <use xlink:href="#m6014b6e3fa" x="111.357828" y="41.163854" style="fill: #e24a33; stroke: #000000"/>
     <use xlink:href="#m6014b6e3fa" x="86.964906" y="43.765898" style="fill: #e24a33; stroke: #000000"/>
     <use xlink:href="#m6014b6e3fa" x="61.182284" y="46.43338" style="fill: #e24a33; stroke: #000000"/>
    </g>
   </g>
   <g id="line2d_120">
    <path d="M 364.055842 57.230582 
L 336.165267 65.550262 
L 312.005353 73.72202 
L 290.694797 80.014503 
L 262.804223 88.368671 
L 238.644308 96.413574 
L 214.013832 104.255183 
L 186.593818 112.784244 
L 162.787629 119.604575 
L 137.392688 128.099422 
L 111.357828 135.990223 
L 86.964906 143.864333 
L 61.182284 151.94133 
" clip-path="url(#p84345f47dc)" style="fill: none; stroke: #348abd; stroke-linecap: square"/>
    <defs>
     <path id="m3fff552f7d" d="M 0 3 
C 0.795609 3 1.55874 2.683901 2.12132 2.12132 
C 2.683901 1.55874 3 0.795609 3 0 
C 3 -0.795609 2.683901 -1.55874 2.12132 -2.12132 
C 1.55874 -2.683901 0.795609 -3 0 -3 
C -0.795609 -3 -1.55874 -2.683901 -2.12132 -2.12132 
C -2.683901 -1.55874 -3 -0.795609 -3 0 
C -3 0.795609 -2.683901 1.55874 -2.12132 2.12132 
C -1.55874 2.683901 -0.795609 3 0 3 
z
" style="stroke: #000000"/>
    </defs>
    <g clip-path="url(#p84345f47dc)">
     <use xlink:href="#m3fff552f7d" x="364.055842" y="57.230582" style="fill: #348abd; stroke: #000000"/>
     <use xlink:href="#m3fff552f7d" x="336.165267" y="65.550262" style="fill: #348abd; stroke: #000000"/>
     <use xlink:href="#m3fff552f7d" x="312.005353" y="73.72202" style="fill: #348abd; stroke: #000000"/>
     <use xlink:href="#m3fff552f7d" x="290.694797" y="80.014503" style="fill: #348abd; stroke: #000000"/>
     <use xlink:href="#m3fff552f7d" x="262.804223" y="88.368671" style="fill: #348abd; stroke: #000000"/>
     <use xlink:href="#m3fff552f7d" x="238.644308" y="96.413574" style="fill: #348abd; stroke: #000000"/>
     <use xlink:href="#m3fff552f7d" x="214.013832" y="104.255183" style="fill: #348abd; stroke: #000000"/>
     <use xlink:href="#m3fff552f7d" x="186.593818" y="112.784244" style="fill: #348abd; stroke: #000000"/>
     <use xlink:href="#m3fff552f7d" x="162.787629" y="119.604575" style="fill: #348abd; stroke: #000000"/>
     <use xlink:href="#m3fff552f7d" x="137.392688" y="128.099422" style="fill: #348abd; stroke: #000000"/>
     <use xlink:href="#m3fff552f7d" x="111.357828" y="135.990223" style="fill: #348abd; stroke: #000000"/>
     <use xlink:href="#m3fff552f7d" x="86.964906" y="143.864333" style="fill: #348abd; stroke: #000000"/>
     <use xlink:href="#m3fff552f7d" x="61.182284" y="151.94133" style="fill: #348abd; stroke: #000000"/>
    </g>
   </g>
   <g id="line2d_121">
    <path d="M 364.055842 87.603937 
L 336.165267 100.89935 
L 312.005353 110.957847 
L 290.694797 121.137775 
L 262.804223 134.057607 
L 238.644308 146.644532 
L 214.013832 159.347341 
L 186.593818 174.119477 
L 162.787629 185.363159 
L 137.392688 200.186527 
L 111.357828 212.613532 
L 86.964906 226.290462 
L 61.182284 240.027275 
" clip-path="url(#p84345f47dc)" style="fill: none; stroke: #988ed5; stroke-linecap: square"/>
    <defs>
     <path id="m18c1b305cf" d="M 0 3 
C 0.795609 3 1.55874 2.683901 2.12132 2.12132 
C 2.683901 1.55874 3 0.795609 3 0 
C 3 -0.795609 2.683901 -1.55874 2.12132 -2.12132 
C 1.55874 -2.683901 0.795609 -3 0 -3 
C -0.795609 -3 -1.55874 -2.683901 -2.12132 -2.12132 
C -2.683901 -1.55874 -3 -0.795609 -3 0 
C -3 0.795609 -2.683901 1.55874 -2.12132 2.12132 
C -1.55874 2.683901 -0.795609 3 0 3 
z
" style="stroke: #000000"/>
    </defs>
    <g clip-path="url(#p84345f47dc)">
     <use xlink:href="#m18c1b305cf" x="364.055842" y="87.603937" style="fill: #988ed5; stroke: #000000"/>
     <use xlink:href="#m18c1b305cf" x="336.165267" y="100.89935" style="fill: #988ed5; stroke: #000000"/>
     <use xlink:href="#m18c1b305cf" x="312.005353" y="110.957847" style="fill: #988ed5; stroke: #000000"/>
     <use xlink:href="#m18c1b305cf" x="290.694797" y="121.137775" style="fill: #988ed5; stroke: #000000"/>
     <use xlink:href="#m18c1b305cf" x="262.804223" y="134.057607" style="fill: #988ed5; stroke: #000000"/>
     <use xlink:href="#m18c1b305cf" x="238.644308" y="146.644532" style="fill: #988ed5; stroke: #000000"/>
     <use xlink:href="#m18c1b305cf" x="214.013832" y="159.347341" style="fill: #988ed5; stroke: #000000"/>
     <use xlink:href="#m18c1b305cf" x="186.593818" y="174.119477" style="fill: #988ed5; stroke: #000000"/>
     <use xlink:href="#m18c1b305cf" x="162.787629" y="185.363159" style="fill: #988ed5; stroke: #000000"/>
     <use xlink:href="#m18c1b305cf" x="137.392688" y="200.186527" style="fill: #988ed5; stroke: #000000"/>
     <use xlink:href="#m18c1b305cf" x="111.357828" y="212.613532" style="fill: #988ed5; stroke: #000000"/>
     <use xlink:href="#m18c1b305cf" x="86.964906" y="226.290462" style="fill: #988ed5; stroke: #000000"/>
     <use xlink:href="#m18c1b305cf" x="61.182284" y="240.027275" style="fill: #988ed5; stroke: #000000"/>
    </g>
   </g>
   <g id="patch_3">
    <path d="M 46.038606 260.388167 
L 46.038606 3.6 
" style="fill: none; stroke: #000000; stroke-width: 0.5; stroke-linejoin: miter; stroke-linecap: square"/>
   </g>
   <g id="patch_4">
    <path d="M 379.19952 260.388167 
L 379.19952 3.6 
" style="fill: none; stroke: #000000; stroke-width: 0.5; stroke-linejoin: miter; stroke-linecap: square"/>
   </g>
   <g id="patch_5">
    <path d="M 46.038606 260.388167 
L 379.19952 260.388167 
" style="fill: none; stroke: #000000; stroke-width: 0.5; stroke-linejoin: miter; stroke-linecap: square"/>
   </g>
   <g id="patch_6">
    <path d="M 46.038606 3.6 
L 379.19952 3.6 
" style="fill: none; stroke: #000000; stroke-width: 0.5; stroke-linejoin: miter; stroke-linecap: square"/>
   </g>
   <g id="text_13">
    <!-- 0.97 -->
    <g transform="translate(65.217888 59.92272) scale(0.1 -0.1)">
     <defs>
      <path id="CMR17-2e" d="M 1062 261 
C 1062 420 934 522 800 522 
C 672 522 538 420 538 261 
C 538 102 666 0 800 0 
C 928 0 1062 102 1062 261 
z
" transform="scale(0.015625)"/>
      <path id="CMR17-39" d="M 2253 1864 
C 2253 464 1670 31 1190 31 
C 1043 31 685 31 538 294 
C 704 268 826 357 826 518 
C 826 692 685 749 595 749 
C 538 749 365 723 365 506 
C 365 71 742 -128 1203 -128 
C 1939 -128 2688 674 2688 2073 
C 2688 3817 1971 4179 1485 4179 
C 851 4179 243 3628 243 2778 
C 243 1991 762 1408 1414 1408 
C 1952 1408 2189 1903 2253 2112 
L 2253 1864 
z
M 1427 1510 
C 1254 1510 1011 1542 813 1922 
C 678 2169 678 2461 678 2771 
C 678 3146 678 3405 858 3684 
C 947 3817 1114 4032 1485 4032 
C 2240 4032 2240 2885 2240 2632 
C 2240 2182 2035 1510 1427 1510 
z
" transform="scale(0.015625)"/>
      <path id="CMR17-37" d="M 2886 3941 
L 2886 4081 
L 1382 4081 
C 634 4081 621 4165 595 4288 
L 480 4288 
L 294 3094 
L 410 3094 
C 429 3215 474 3540 550 3661 
C 589 3712 1062 3712 1171 3712 
L 2579 3712 
L 1869 2661 
C 1395 1954 1069 999 1069 165 
C 1069 89 1069 -128 1299 -128 
C 1530 -128 1530 89 1530 171 
L 1530 465 
C 1530 1508 1709 2196 2003 2636 
L 2886 3941 
z
" transform="scale(0.015625)"/>
     </defs>
     <use xlink:href="#CMR17-30" transform="scale(0.996264)"/>
     <use xlink:href="#CMR17-2e" transform="translate(45.690477 0) scale(0.996264)"/>
     <use xlink:href="#CMR17-39" transform="translate(70.561536 0) scale(0.996264)"/>
     <use xlink:href="#CMR17-37" transform="translate(116.252013 0) scale(0.996264)"/>
    </g>
   </g>
   <g id="text_14">
    <!-- 2.94 -->
    <g transform="translate(65.217888 165.160194) scale(0.1 -0.1)">
     <use xlink:href="#CMR17-32" transform="scale(0.996264)"/>
     <use xlink:href="#CMR17-2e" transform="translate(45.690477 0) scale(0.996264)"/>
     <use xlink:href="#CMR17-39" transform="translate(70.561536 0) scale(0.996264)"/>
     <use xlink:href="#CMR17-34" transform="translate(116.252013 0) scale(0.996264)"/>
    </g>
   </g>
   <g id="text_15">
    <!-- 5.00 -->
    <g transform="translate(65.217888 252.963149) scale(0.1 -0.1)">
     <use xlink:href="#CMR17-35" transform="scale(0.996264)"/>
     <use xlink:href="#CMR17-2e" transform="translate(45.690477 0) scale(0.996264)"/>
     <use xlink:href="#CMR17-30" transform="translate(70.561536 0) scale(0.996264)"/>
     <use xlink:href="#CMR17-30" transform="translate(116.252013 0) scale(0.996264)"/>
    </g>
   </g>
   <g id="legend_1">
    <g id="line2d_122">
     <path d="M 280.178802 218.076632 
L 290.178802 218.076632 
L 300.178802 218.076632 
" style="fill: none; stroke: #e24a33; stroke-linecap: square"/>
     <g>
      <use xlink:href="#m6014b6e3fa" x="290.178802" y="218.076632" style="fill: #e24a33; stroke: #000000"/>
     </g>
    </g>
    <g id="text_16">
     <!-- $p=1, \Delta:0.98$ -->
     <g transform="translate(308.178802 221.576632) scale(0.1 -0.1)">
      <defs>
       <path id="CMMI12-70" d="M 275 -789 
C 230 -980 205 -1031 -58 -1031 
C -134 -1031 -198 -1031 -198 -1152 
C -198 -1165 -192 -1216 -122 -1216 
C -38 -1216 51 -1216 134 -1216 
L 410 -1216 
C 544 -1216 870 -1216 1005 -1216 
C 1043 -1216 1120 -1216 1120 -1101 
C 1120 -1031 1075 -1031 966 -1031 
C 672 -1031 653 -987 653 -937 
C 653 -861 941 219 979 364 
C 1050 185 1222 -64 1555 -64 
C 2278 -64 3059 875 3059 1814 
C 3059 2401 2726 2816 2246 2816 
C 1837 2816 1491 2420 1421 2331 
C 1370 2650 1120 2816 864 2816 
C 678 2816 531 2727 410 2484 
C 294 2254 205 1865 205 1839 
C 205 1814 230 1782 275 1782 
C 326 1782 333 1788 371 1935 
C 467 2312 589 2689 845 2689 
C 992 2689 1043 2587 1043 2397 
C 1043 2245 1024 2181 998 2067 
L 275 -789 
z
M 1382 1993 
C 1427 2171 1606 2357 1709 2446 
C 1779 2510 1990 2689 2234 2689 
C 2515 2689 2643 2408 2643 2076 
C 2643 1769 2464 1047 2304 715 
C 2144 370 1850 64 1555 64 
C 1120 64 1050 613 1050 639 
C 1050 658 1062 709 1069 741 
L 1382 1993 
z
" transform="scale(0.015625)"/>
       <path id="CMR17-3d" d="M 4115 2017 
C 4211 2017 4307 2017 4307 2125 
C 4307 2240 4198 2240 4090 2240 
L 512 2240 
C 403 2240 294 2240 294 2125 
C 294 2017 390 2017 486 2017 
L 4115 2017 
z
M 4090 896 
C 4198 896 4307 896 4307 1011 
C 4307 1119 4211 1119 4115 1119 
L 486 1119 
C 390 1119 294 1119 294 1011 
C 294 896 403 896 512 896 
L 4090 896 
z
" transform="scale(0.015625)"/>
       <path id="CMMI12-3b" d="M 1248 -31 
C 1248 343 1126 619 864 619 
C 659 619 557 453 557 313 
C 557 172 653 0 870 0 
C 954 0 1024 26 1082 83 
C 1094 96 1101 96 1107 96 
C 1120 96 1120 5 1120 -27 
C 1120 -240 1082 -659 710 -1080 
C 640 -1157 640 -1170 640 -1183 
C 640 -1216 672 -1248 704 -1248 
C 755 -1248 1248 -771 1248 -31 
z
" transform="scale(0.015625)"/>
       <path id="CMR17-1" d="M 2598 4403 
C 2547 4512 2522 4512 2470 4512 
C 2394 4512 2387 4499 2342 4409 
L 269 109 
C 262 96 237 38 237 32 
C 237 6 243 0 358 0 
L 4576 0 
C 4691 0 4698 6 4698 32 
C 4698 38 4672 96 4666 109 
L 2598 4403 
z
M 2310 4038 
L 4083 358 
L 531 358 
L 2310 4038 
z
" transform="scale(0.015625)"/>
       <path id="CMR17-3a" d="M 1062 2491 
C 1062 2650 934 2752 800 2752 
C 672 2752 538 2650 538 2491 
C 538 2332 666 2230 800 2230 
C 928 2230 1062 2332 1062 2491 
z
M 1062 261 
C 1062 420 934 522 800 522 
C 672 522 538 420 538 261 
C 538 102 666 0 800 0 
C 928 0 1062 102 1062 261 
z
" transform="scale(0.015625)"/>
       <path id="CMMI12-3a" d="M 1178 307 
C 1178 492 1024 619 870 619 
C 685 619 557 466 557 313 
C 557 128 710 0 864 0 
C 1050 0 1178 153 1178 307 
z
" transform="scale(0.015625)"/>
       <path id="CMR17-38" d="M 1741 2264 
C 2144 2467 2554 2773 2554 3263 
C 2554 3841 1990 4179 1472 4179 
C 890 4179 378 3759 378 3180 
C 378 3021 416 2747 666 2505 
C 730 2442 998 2251 1171 2130 
C 883 1983 211 1634 211 934 
C 211 279 838 -128 1459 -128 
C 2144 -128 2720 362 2720 1010 
C 2720 1590 2330 1857 2074 2029 
L 1741 2264 
z
M 902 2822 
C 851 2854 595 3051 595 3351 
C 595 3739 998 4032 1459 4032 
C 1965 4032 2336 3676 2336 3262 
C 2336 2669 1670 2331 1638 2331 
C 1632 2331 1626 2331 1574 2370 
L 902 2822 
z
M 2080 1519 
C 2176 1449 2483 1240 2483 851 
C 2483 381 2010 25 1472 25 
C 890 25 448 438 448 940 
C 448 1443 838 1862 1280 2060 
L 2080 1519 
z
" transform="scale(0.015625)"/>
      </defs>
      <use xlink:href="#CMMI12-70" transform="scale(0.996264)"/>
      <use xlink:href="#CMR17-3d" transform="translate(76.633523 0) scale(0.996264)"/>
      <use xlink:href="#CMR17-31" transform="translate(176.02232 0) scale(0.996264)"/>
      <use xlink:href="#CMMI12-3b" transform="translate(221.712797 0) scale(0.996264)"/>
      <use xlink:href="#CMR17-1" transform="translate(265.414379 0) scale(0.996264)"/>
      <use xlink:href="#CMR17-3a" transform="translate(370.007978 0) scale(0.996264)"/>
      <use xlink:href="#CMR17-30" transform="translate(422.553045 0) scale(0.996264)"/>
      <use xlink:href="#CMMI12-3a" transform="translate(468.243522 0) scale(0.996264)"/>
      <use xlink:href="#CMR17-39" transform="translate(495.340699 0) scale(0.996264)"/>
      <use xlink:href="#CMR17-38" transform="translate(541.031176 0) scale(0.996264)"/>
     </g>
    </g>
    <g id="line2d_123">
     <path d="M 280.178802 232.01381 
L 290.178802 232.01381 
L 300.178802 232.01381 
" style="fill: none; stroke: #348abd; stroke-linecap: square"/>
     <g>
      <use xlink:href="#m3fff552f7d" x="290.178802" y="232.01381" style="fill: #348abd; stroke: #000000"/>
     </g>
    </g>
    <g id="text_17">
     <!-- $p=3, \Delta:2.93$ -->
     <g transform="translate(308.178802 235.51381) scale(0.1 -0.1)">
      <use xlink:href="#CMMI12-70" transform="scale(0.996264)"/>
      <use xlink:href="#CMR17-3d" transform="translate(76.633523 0) scale(0.996264)"/>
      <use xlink:href="#CMR17-33" transform="translate(176.02232 0) scale(0.996264)"/>
      <use xlink:href="#CMMI12-3b" transform="translate(221.712797 0) scale(0.996264)"/>
      <use xlink:href="#CMR17-1" transform="translate(265.414379 0) scale(0.996264)"/>
      <use xlink:href="#CMR17-3a" transform="translate(370.007978 0) scale(0.996264)"/>
      <use xlink:href="#CMR17-32" transform="translate(422.553045 0) scale(0.996264)"/>
      <use xlink:href="#CMMI12-3a" transform="translate(468.243522 0) scale(0.996264)"/>
      <use xlink:href="#CMR17-39" transform="translate(495.340699 0) scale(0.996264)"/>
      <use xlink:href="#CMR17-33" transform="translate(541.031176 0) scale(0.996264)"/>
     </g>
    </g>
    <g id="line2d_124">
     <path d="M 280.178802 245.950988 
L 290.178802 245.950988 
L 300.178802 245.950988 
" style="fill: none; stroke: #988ed5; stroke-linecap: square"/>
     <g>
      <use xlink:href="#m18c1b305cf" x="290.178802" y="245.950988" style="fill: #988ed5; stroke: #000000"/>
     </g>
    </g>
    <g id="text_18">
     <!-- $p=5, \Delta:4.74$ -->
     <g transform="translate(308.178802 249.450988) scale(0.1 -0.1)">
      <use xlink:href="#CMMI12-70" transform="scale(0.996264)"/>
      <use xlink:href="#CMR17-3d" transform="translate(76.633523 0) scale(0.996264)"/>
      <use xlink:href="#CMR17-35" transform="translate(176.02232 0) scale(0.996264)"/>
      <use xlink:href="#CMMI12-3b" transform="translate(221.712797 0) scale(0.996264)"/>
      <use xlink:href="#CMR17-1" transform="translate(265.414379 0) scale(0.996264)"/>
      <use xlink:href="#CMR17-3a" transform="translate(370.007978 0) scale(0.996264)"/>
      <use xlink:href="#CMR17-34" transform="translate(422.553045 0) scale(0.996264)"/>
      <use xlink:href="#CMMI12-3a" transform="translate(468.243522 0) scale(0.996264)"/>
      <use xlink:href="#CMR17-37" transform="translate(495.340699 0) scale(0.996264)"/>
      <use xlink:href="#CMR17-34" transform="translate(541.031176 0) scale(0.996264)"/>
     </g>
    </g>
   </g>
   <g id="patch_7">
    <path d="M 62.471415 51.25372 
L 85.675775 51.25372 
L 85.675775 48.852986 
z
" clip-path="url(#p84345f47dc)" style="fill: #808080; stroke: #000000; stroke-width: 0.5; stroke-linejoin: miter"/>
   </g>
   <g id="patch_8">
    <path d="M 62.471415 156.491194 
L 85.675775 156.491194 
L 85.675775 149.221897 
z
" clip-path="url(#p84345f47dc)" style="fill: #808080; stroke: #000000; stroke-width: 0.5; stroke-linejoin: miter"/>
   </g>
   <g id="patch_9">
    <path d="M 62.471415 244.294149 
L 85.675775 244.294149 
L 85.675775 231.931017 
z
" clip-path="url(#p84345f47dc)" style="fill: #808080; stroke: #000000; stroke-width: 0.5; stroke-linejoin: miter"/>
   </g>
  </g>
 </g>
 <defs>
  <clipPath id="p84345f47dc">
   <rect x="46.038606" y="3.6" width="333.160914" height="256.788167"/>
  </clipPath>
 </defs>
</svg>
